<svg width="32" height="32" viewBox="0 0 32 32" fill="none" xmlns="http://www.w3.org/2000/svg">
<g id="Alert">
<path id="Polygon 5" d="M14.1139 3.02005C14.9433 1.55266 17.0569 1.55266 17.8863 3.02005L30.6492 25.6006C31.4656 27.045 30.4221 28.8334 28.763 28.8334H3.23715C1.57804 28.8334 0.534554 27.045 1.35093 25.6006L14.1139 3.02005Z" fill="#F33621" stroke="white"/>
<g id="Union">
<mask id="path-2-inside-1_13744_124572" fill="white">
<path fill-rule="evenodd" clip-rule="evenodd" d="M16.0002 10.6667C15.2638 10.6667 14.6668 11.2637 14.6668 12.0001V18.6667C14.6668 19.4031 15.2638 20.0001 16.0002 20.0001C16.7365 20.0001 17.3335 19.4031 17.3335 18.6667V12.0001C17.3335 11.2637 16.7365 10.6667 16.0002 10.6667ZM16.0001 22.6667C15.2637 22.6667 14.6667 23.2636 14.6667 24C14.6667 24.7364 15.2637 25.3333 16.0001 25.3333C16.7365 25.3333 17.3334 24.7364 17.3334 24C17.3334 23.2636 16.7365 22.6667 16.0001 22.6667Z"/>
</mask>
<path fill-rule="evenodd" clip-rule="evenodd" d="M16.0002 10.6667C15.2638 10.6667 14.6668 11.2637 14.6668 12.0001V18.6667C14.6668 19.4031 15.2638 20.0001 16.0002 20.0001C16.7365 20.0001 17.3335 19.4031 17.3335 18.6667V12.0001C17.3335 11.2637 16.7365 10.6667 16.0002 10.6667ZM16.0001 22.6667C15.2637 22.6667 14.6667 23.2636 14.6667 24C14.6667 24.7364 15.2637 25.3333 16.0001 25.3333C16.7365 25.3333 17.3334 24.7364 17.3334 24C17.3334 23.2636 16.7365 22.6667 16.0001 22.6667Z" fill="white"/>
<path d="M16.0002 12.0001V12.0001V9.33341C14.5274 9.33341 13.3335 10.5273 13.3335 12.0001H16.0002ZM16.0002 18.6667V12.0001H13.3335V18.6667H16.0002ZM16.0002 18.6667H13.3335C13.3335 20.1395 14.5274 21.3334 16.0002 21.3334V18.6667ZM16.0002 18.6667V18.6667V21.3334C17.4729 21.3334 18.6668 20.1395 18.6668 18.6667H16.0002ZM16.0002 12.0001V18.6667H18.6668V12.0001H16.0002ZM16.0002 12.0001V12.0001H18.6668C18.6668 10.5273 17.4729 9.33341 16.0002 9.33341V12.0001ZM16.0001 24V21.3333C14.5273 21.3333 13.3334 22.5272 13.3334 24H16.0001ZM16.0001 24V24H13.3334C13.3334 25.4728 14.5273 26.6667 16.0001 26.6667V24ZM16.0001 24L16.0001 24V26.6667C17.4728 26.6667 18.6667 25.4728 18.6667 24H16.0001ZM16.0001 24H16.0001H18.6667C18.6667 22.5272 17.4728 21.3333 16.0001 21.3333V24Z" fill="white" mask="url(#path-2-inside-1_13744_124572)"/>
</g>
</g>
</svg>
