<svg width="19" height="18" viewBox="0 0 19 18" fill="none" xmlns="http://www.w3.org/2000/svg">
<path id="Vector" fill-rule="evenodd" clip-rule="evenodd" d="M0.917497 4.37635C0.681217 4.289 0.435681 4.22028 0.182645 4.17194C0.164067 4.1684 0.14545 4.16496 0.12679 4.16163C-0.0422633 4.13147 -0.0422633 3.88898 0.12679 3.85881C0.14545 3.85548 0.164067 3.85204 0.182645 3.8485C0.435681 3.80016 0.681217 3.73144 0.917497 3.64409C1.0589 3.59182 1.19699 3.53289 1.33138 3.46763C2.2621 3.01585 3.01585 2.26211 3.46765 1.33138C3.53288 1.19699 3.59184 1.0589 3.64409 0.917497C3.73144 0.681217 3.80016 0.435681 3.8485 0.182645C3.85204 0.164067 3.85547 0.14545 3.85881 0.12679C3.88897 -0.0422633 4.13146 -0.0422633 4.16162 0.12679C4.16496 0.14545 4.1684 0.164067 4.17194 0.182645C4.22028 0.435681 4.289 0.681217 4.37634 0.917497C4.42862 1.0589 4.48755 1.19699 4.55281 1.33138C5.00459 2.26211 5.75833 3.01585 6.68906 3.46763C6.82346 3.53289 6.96154 3.59182 7.10294 3.64409C7.33922 3.73144 7.58475 3.80016 7.8378 3.8485C7.85638 3.85204 7.87499 3.85548 7.89364 3.85881C8.06271 3.88898 8.06271 4.13147 7.89364 4.16163C7.87499 4.16496 7.85638 4.1684 7.8378 4.17194C7.58475 4.22028 7.33922 4.289 7.10294 4.37635C6.96154 4.42863 6.82346 4.48755 6.68906 4.55281C5.75833 5.00459 5.00459 5.75834 4.55281 6.68907C4.48755 6.82346 4.42862 6.96154 4.37634 7.10294C4.289 7.33923 4.22028 7.58476 4.17194 7.83781C4.1684 7.85636 4.16496 7.87499 4.16162 7.89365C4.13146 8.06271 3.88897 8.06271 3.85881 7.89365C3.85547 7.87499 3.85204 7.85636 3.8485 7.83781C3.80016 7.58476 3.73144 7.33923 3.64409 7.10294C3.59184 6.96154 3.53288 6.82346 3.46765 6.68907C3.01585 5.75834 2.2621 5.00459 1.33138 4.55281C1.19699 4.48755 1.0589 4.42863 0.917497 4.37635ZM6.56645 10.3835C6.4012 10.339 6.23365 10.2999 6.06399 10.2665C6.03746 10.2613 6.01091 10.2562 5.98431 10.2512L5.97624 10.2498L5.96533 10.2478C5.94854 10.2447 5.93011 10.2414 5.89325 10.2348L5.88037 10.2325C5.61001 10.1814 5.61001 9.79421 5.88037 9.74306L5.89325 9.74076C5.93011 9.73416 5.94854 9.73088 5.96533 9.72781L5.97624 9.72582L5.98431 9.72433C6.01091 9.71937 6.03746 9.71429 6.06396 9.70908C6.23362 9.67566 6.4012 9.63658 6.56645 9.59205C6.70759 9.55402 6.84707 9.51197 6.98476 9.46609C9.2123 8.72356 10.9651 6.97071 11.7077 4.74317C11.7536 4.60549 11.7956 4.46601 11.8336 4.32484C11.8782 4.15961 11.9172 3.99204 11.9507 3.82238C11.9559 3.79588 11.961 3.76933 11.9659 3.74272L11.9674 3.73465L11.9694 3.72375C11.9724 3.70716 11.9757 3.68895 11.9821 3.65291L11.9824 3.65167L11.9846 3.63879C12.0358 3.36843 12.4229 3.36843 12.4741 3.63879L12.4764 3.65167C12.483 3.68853 12.4863 3.70696 12.4893 3.72375L12.4913 3.73465L12.4928 3.74272C12.4978 3.76933 12.5029 3.79588 12.5081 3.82238C12.5415 3.99206 12.5806 4.15961 12.6251 4.32484C12.6631 4.46601 12.7052 4.60549 12.7511 4.74317C13.4936 6.97071 15.2464 8.72356 17.474 9.46609C17.6117 9.51197 17.7512 9.55402 17.8923 9.59205C18.0576 9.63658 18.2251 9.67566 18.3948 9.70908C18.4213 9.71429 18.4478 9.71937 18.4744 9.72433L18.4825 9.72582L18.4934 9.72781C18.5102 9.73088 18.5286 9.73416 18.5655 9.74076L18.5784 9.74306C18.8487 9.79421 18.8487 10.1814 18.5784 10.2325L18.5655 10.2348L18.5265 10.2418L18.4934 10.2478L18.4825 10.2498L18.4744 10.2512C18.4478 10.2562 18.4213 10.2613 18.3948 10.2665C18.2251 10.2999 18.0576 10.339 17.8923 10.3835C17.7512 10.4216 17.6117 10.4636 17.474 10.5095C15.2464 11.252 13.4936 13.0049 12.7511 15.2324C12.7052 15.3701 12.6631 15.5096 12.6251 15.6507C12.5806 15.816 12.5415 15.9835 12.5081 16.1532C12.5029 16.1797 12.4978 16.2062 12.4928 16.2328L12.4913 16.2409L12.4893 16.2518L12.4849 16.2764L12.4767 16.3225L12.4741 16.3368C12.4229 16.6071 12.0358 16.6071 11.9846 16.3368L11.9824 16.3239C11.9758 16.2871 11.9725 16.2686 11.9694 16.2518L11.9674 16.2409L11.9659 16.2328C11.961 16.2062 11.9559 16.1797 11.9507 16.1532C11.9172 15.9835 11.8782 15.816 11.8336 15.6507C11.7956 15.5096 11.7536 15.3701 11.7077 15.2324C10.9651 13.0049 9.2123 11.252 6.98476 10.5095C6.84707 10.4636 6.70759 10.4216 6.56645 10.3835ZM2.83814 15.5694C3.1223 15.6236 3.39146 15.7186 3.63943 15.8481C3.74975 15.9057 3.85585 15.97 3.95719 16.0407C4.23961 16.2376 4.48516 16.4832 4.68207 16.7656C4.75273 16.8669 4.81714 16.973 4.8747 17.0833C5.00416 17.3313 5.09913 17.6005 5.1534 17.8847C5.15564 17.8964 5.15784 17.9081 5.15993 17.9199C5.17898 18.0267 5.33213 18.0267 5.35119 17.9199C5.35328 17.9081 5.35544 17.8964 5.35769 17.8847C5.41198 17.6005 5.50695 17.3313 5.63639 17.0833C5.69397 16.973 5.75838 16.8669 5.82904 16.7656C6.02593 16.4832 6.27151 16.2376 6.55392 16.0407C6.65527 15.97 6.76137 15.9057 6.87165 15.8481C7.11965 15.7186 7.38881 15.6236 7.67297 15.5694C7.6847 15.5671 7.69646 15.565 7.70824 15.5628C7.81501 15.5438 7.81501 15.3906 7.70824 15.3716C7.69646 15.3695 7.6847 15.3673 7.67297 15.3651C7.38881 15.3108 7.11965 15.2158 6.87165 15.0864C6.76137 15.0288 6.65527 14.9644 6.55392 14.8937C6.27151 14.6968 6.02593 14.4513 5.82904 14.1689C5.75838 14.0675 5.69397 13.9614 5.63639 13.8511C5.50695 13.6031 5.41198 13.334 5.35769 13.0498C5.35544 13.0381 5.35328 13.0263 5.35119 13.0145C5.33213 12.9078 5.17898 12.9078 5.15993 13.0145C5.15784 13.0263 5.15564 13.0381 5.1534 13.0498C5.09913 13.334 5.00416 13.6031 4.8747 13.8511C4.81714 13.9614 4.75273 14.0675 4.68207 14.1689C4.48516 14.4513 4.23961 14.6968 3.95719 14.8937C3.85585 14.9644 3.74975 15.0288 3.63943 15.0864C3.39146 15.2158 3.1223 15.3108 2.83814 15.3651C2.82641 15.3673 2.81465 15.3695 2.80285 15.3716C2.6961 15.3906 2.6961 15.5438 2.80285 15.5628C2.81465 15.565 2.82641 15.5671 2.83814 15.5694Z" fill="white" style="fill:white;fill-opacity:1;"/>
</svg>
