<svg width="25" height="25" viewBox="0 0 25 25" fill="none" xmlns="http://www.w3.org/2000/svg">
<path d="M19.7982 5.83997C18.3528 5.20499 16.8269 4.75449 15.2594 4.5C15.0453 4.8681 14.8512 5.24664 14.678 5.63408C13.0084 5.39345 11.3106 5.39345 9.64092 5.63408C9.46774 5.24664 9.27367 4.8681 9.05951 4.5C7.49128 4.75741 5.96446 5.20894 4.51728 5.8433C1.64487 9.92134 0.866199 13.8981 1.25553 17.8184C2.93751 19.0113 4.82038 19.9183 6.82214 20.5C7.2727 19.9182 7.67151 19.3011 8.01437 18.6553C7.36342 18.4221 6.73517 18.1342 6.13691 17.7951C6.29438 17.6856 6.44838 17.5726 6.59719 17.4631C8.33812 18.2487 10.2382 18.656 12.1621 18.656C14.0859 18.656 15.986 18.2487 17.7269 17.4631C17.8775 17.5809 18.0315 17.6939 18.1872 17.7951C17.588 18.1351 16.9586 18.4235 16.3063 18.6569C16.6485 19.3026 17.0474 19.9192 17.4985 20.5C19.502 19.9207 21.3863 19.0141 23.0686 17.82C23.5254 13.2738 22.2882 9.33354 19.7982 5.83997ZM8.50752 15.4074C7.42258 15.4074 6.52625 14.4626 6.52625 13.3003C6.52625 12.138 7.39143 11.1849 8.50406 11.1849C9.61669 11.1849 10.5061 12.138 10.4871 13.3003C10.468 14.4626 9.61323 15.4074 8.50752 15.4074ZM15.8166 15.4074C14.7299 15.4074 13.8371 14.4626 13.8371 13.3003C13.8371 12.138 14.7023 11.1849 15.8166 11.1849C16.931 11.1849 17.8135 12.138 17.7944 13.3003C17.7754 14.4626 16.9223 15.4074 15.8166 15.4074Z" fill="white"/>
</svg>
