<svg width="32" height="32" viewBox="0 0 32 32" fill="none" xmlns="http://www.w3.org/2000/svg">
<path d="M8.20539 18.9207L7.23075 22.5592L3.66846 22.6346C2.60386 20.66 2 18.4008 2 16C2 13.6785 2.56459 11.4892 3.56537 9.56152H3.56614L6.73758 10.143L8.12686 13.2954C7.83608 14.1431 7.6776 15.0531 7.6776 16C7.67771 17.0277 7.86386 18.0123 8.20539 18.9207Z" fill="#FBBB00"/>
<path d="M29.7554 13.3846C29.9161 14.2315 30 15.1061 30 16C30 17.0023 29.8946 17.98 29.6938 18.9231C29.0123 22.1323 27.2315 24.9346 24.7646 26.9177L24.7639 26.9169L20.7693 26.7131L20.2039 23.1838C21.8408 22.2239 23.1201 20.7215 23.7939 18.9231H16.3078V13.3846H23.9031H29.7554Z" fill="#518EF8"/>
<path d="M24.7639 26.9169L24.7646 26.9177C22.3654 28.8461 19.3177 30 16 30C10.6685 30 6.03313 27.02 3.6685 22.6346L8.20543 18.9208C9.38772 22.0762 12.4316 24.3223 16 24.3223C17.5339 24.3223 18.9708 23.9077 20.2039 23.1839L24.7639 26.9169Z" fill="#28B446"/>
<path d="M24.936 5.22306L20.4007 8.93612C19.1245 8.13845 17.616 7.67765 15.9999 7.67765C12.3507 7.67765 9.24988 10.0269 8.12681 13.2954L3.56604 9.56153H3.56528C5.89529 5.06923 10.5891 2 15.9999 2C19.3968 2 22.5114 3.21002 24.936 5.22306Z" fill="#F14336"/>
</svg>
