<svg width="181" height="48" viewBox="0 0 181 48" fill="none" xmlns="http://www.w3.org/2000/svg">
<g clip-path="url(#clip0_1793_17034)">
<path d="M16.2964 12.3411C7.15695 13.1609 0 20.8989 0 30.3165C0 40.2939 8.00944 48.3719 17.9023 48.3719H32.8704C32.8903 48.3719 32.8903 48.3719 32.9101 48.3719C23.0371 48.3519 15.0474 40.2739 15.0474 30.3165V18.9594C15.0474 16.62 15.4836 14.3805 16.2964 12.3411Z" fill="#FF42A5"/>
<path d="M49.5435 12.3411C50.3564 14.4005 50.7925 16.64 50.7925 18.9794V30.3365C50.7925 40.2939 42.8029 48.3719 32.9299 48.3919C32.9497 48.3919 32.9497 48.3919 32.9695 48.3919H47.9377C57.8305 48.3919 65.84 40.3139 65.84 30.3365C65.84 20.8989 58.683 13.1608 49.5435 12.3411Z" fill="#B3D661"/>
<path d="M32.8704 48.3719C32.8506 48.3719 32.8506 48.3719 32.8307 48.3719C32.8506 48.3719 32.8704 48.3719 32.8704 48.3719C32.8902 48.3719 32.8902 48.3719 32.91 48.3719C32.91 48.3719 32.8902 48.3719 32.8704 48.3719ZM32.8704 0.903982C25.2971 0.903982 18.834 5.64278 16.2171 12.3411C16.7524 12.3011 17.2877 12.2611 17.823 12.2611H32.7911C32.8109 12.2611 32.8506 12.2611 32.8704 12.2611C32.8902 12.2611 32.9299 12.2611 32.9497 12.2611H47.9178C48.4531 12.2611 49.0082 12.2811 49.5237 12.3411C46.9266 5.64278 40.4437 0.903982 32.8704 0.903982Z" fill="#51A5C9"/>
<path d="M32.8109 12.2611H17.8229C17.2876 12.2611 16.7325 12.2811 16.2171 12.3411C15.4042 14.4005 14.9681 16.64 14.9681 18.9794V30.3365C14.9681 40.2939 22.9577 48.3719 32.8307 48.3919C32.8506 48.3919 32.8506 48.3919 32.8704 48.3919C23.0172 48.3519 15.0474 40.274 15.0474 30.3365C15.0474 20.379 23.0172 12.3211 32.8704 12.2811C32.8506 12.2611 32.8307 12.2611 32.8109 12.2611Z" fill="#4C4789"/>
<path d="M47.9377 12.2611H32.9696C32.9497 12.2611 32.9101 12.2611 32.8903 12.2611C42.7435 12.3011 50.7133 20.379 50.7133 30.3165C50.7133 40.274 42.7435 48.3319 32.8903 48.3719C32.9101 48.3719 32.9101 48.3719 32.9299 48.3719C42.8029 48.3519 50.7926 40.274 50.7926 30.3165V18.9594C50.7926 16.62 50.3564 14.3805 49.5436 12.3211C49.0083 12.2811 48.473 12.2611 47.9377 12.2611Z" fill="#398B4D"/>
<path d="M32.8704 12.2611C23.0172 12.3011 15.0474 20.379 15.0474 30.3165C15.0474 40.274 23.0172 48.3319 32.8704 48.3719C42.7236 48.3319 50.6934 40.254 50.6934 30.3165C50.7132 20.379 42.7236 12.3011 32.8704 12.2611Z" fill="#0B0223"/>
<path d="M32.91 48.3719C42.7972 48.3719 50.8123 40.2882 50.8123 30.3165C50.8123 20.3448 42.7972 12.2611 32.91 12.2611C23.0229 12.2611 15.0078 20.3448 15.0078 30.3165C15.0078 40.2882 23.0229 48.3719 32.91 48.3719Z" fill="#0B0223"/>
<path d="M28.4891 29.2368C28.4891 30.8364 27.2004 32.136 25.6144 32.136C24.0284 32.136 22.7397 30.8364 22.7397 29.2368C22.7397 27.6372 24.0284 26.3375 25.6144 26.3375C27.2004 26.3375 28.4891 27.6372 28.4891 29.2368Z" fill="white"/>
<path d="M42.8228 30.8364H38.4613C37.6881 30.8364 37.0536 30.1965 37.0536 29.4167V29.0768C37.0536 28.297 37.6881 27.6572 38.4613 27.6572H42.8228C43.596 27.6572 44.2304 28.297 44.2304 29.0768V29.4167C44.2304 30.1965 43.596 30.8364 42.8228 30.8364Z" fill="white"/>
<path d="M28.5286 29.2767C28.5286 30.8763 27.24 32.176 25.654 32.176C24.0679 32.176 22.7793 30.8763 22.7793 29.2767C22.7793 27.6771 24.0679 26.3775 25.654 26.3775C27.24 26.3775 28.5286 27.6771 28.5286 29.2767Z" fill="white"/>
<path d="M42.8425 30.8764H38.481C37.7078 30.8764 37.0734 30.2365 37.0734 29.4567V29.1168C37.0734 28.337 37.7078 27.6972 38.481 27.6972H42.8425C43.6157 27.6972 44.2501 28.337 44.2501 29.1168V29.4567C44.2501 30.2365 43.6356 30.8764 42.8425 30.8764Z" fill="white"/>
<path d="M90.5849 21.8661C91.8389 23.1099 92.4659 24.9846 92.4659 27.49V37.048H85.5574V28.6829C85.5574 26.7687 84.8744 25.8116 83.5082 25.8116C83.1545 25.7979 82.8021 25.8631 82.4767 26.0027C82.1513 26.1422 81.8611 26.3525 81.6272 26.6183C81.1506 27.1612 80.9123 28.0125 80.9123 29.1722V37.0327H74V20.3063H80.572V21.9579C81.2105 21.3177 81.9782 20.8211 82.8239 20.5013C83.7139 20.1694 84.6573 20.0036 85.6072 20.0119C87.6717 20.0042 89.3309 20.6223 90.5849 21.8661Z" fill="white"/>
<path d="M96.3961 36.2222C94.9755 35.5262 93.7743 34.4521 92.9246 33.1178C92.0806 31.7776 91.6448 30.2206 91.6706 28.637C91.6454 27.0546 92.0811 25.4991 92.9246 24.1601C93.7761 22.8386 94.9779 21.7797 96.3961 21.1015C97.9681 20.3761 99.6788 20.0004 101.41 20.0004C103.142 20.0004 104.852 20.3761 106.424 21.1015C107.834 21.78 109.026 22.8395 109.865 24.1601C110.706 25.5059 111.14 27.0657 111.115 28.6523C111.138 30.2286 110.708 31.7784 109.877 33.1178C109.037 34.4457 107.846 35.515 106.436 36.2069C104.866 36.9422 103.155 37.3234 101.422 37.3234C99.6886 37.3234 97.9768 36.9422 96.4075 36.2069L96.3961 36.2222ZM103.35 31.0838C103.896 30.395 104.168 29.5293 104.115 28.6523C104.17 27.7809 103.897 26.9204 103.35 26.2399C103.1 25.9713 102.797 25.7571 102.46 25.6106C102.123 25.4642 101.76 25.3886 101.393 25.3886C101.026 25.3886 100.662 25.4642 100.326 25.6106C99.9889 25.7571 99.6859 25.9713 99.4355 26.2399C98.8885 26.9204 98.6157 27.7809 98.6709 28.6523C98.6179 29.5293 98.8902 30.395 99.4355 31.0838C99.6825 31.3581 99.9844 31.5775 100.322 31.7276C100.659 31.8777 101.024 31.9553 101.393 31.9553C101.762 31.9553 102.127 31.8777 102.464 31.7276C102.802 31.5775 103.103 31.3581 103.35 31.0838Z" fill="white"/>
<path d="M138.39 20.3063V29.5393C138.39 32.0294 137.635 33.9512 136.126 35.3046C134.618 36.658 132.507 37.3309 129.795 37.3232C128.75 37.3364 127.709 37.1868 126.71 36.8797C125.806 36.5941 124.987 36.0898 124.324 35.4117C123.657 36.0875 122.84 36.5958 121.939 36.895C120.939 37.2 119.898 37.3446 118.853 37.3232C116.119 37.3232 114.003 36.6504 112.507 35.3046C111.011 33.9588 110.261 32.032 110.259 29.524V20.3063H117.171V29.0805C117.171 30.9156 117.782 31.8332 119.003 31.8332C120.223 31.8332 120.845 30.9156 120.868 29.0805V20.3063H127.78V29.0805C127.78 30.9156 128.401 31.8332 129.642 31.8332C129.909 31.8559 130.176 31.8102 130.42 31.7005C130.663 31.5908 130.875 31.4206 131.034 31.2062C131.332 30.778 131.478 30.0592 131.478 29.0958V20.3063H138.39Z" fill="white"/>
<path d="M141.131 36.2451C140.883 36.0014 140.687 35.7095 140.555 35.3874C140.424 35.0652 140.36 34.7196 140.366 34.3718C140.356 34.0256 140.418 33.6811 140.55 33.3609C140.682 33.0407 140.88 32.7519 141.131 32.5137C141.637 32.0559 142.295 31.8024 142.978 31.8024C143.66 31.8024 144.318 32.0559 144.824 32.5137C145.076 32.7513 145.275 33.04 145.407 33.3603C145.539 33.6807 145.601 34.0255 145.589 34.3718C145.597 34.7197 145.533 35.0656 145.401 35.3879C145.27 35.7102 145.073 36.002 144.824 36.2451C144.33 36.7257 143.667 36.9946 142.978 36.9946C142.288 36.9946 141.626 36.7257 141.131 36.2451Z" fill="#FF42A5"/>
<path d="M163.068 20.2146V32.2002C163.068 34.8509 162.382 36.8135 161.008 38.0879C159.634 39.3623 157.628 39.9995 154.99 39.9995C153.654 40.0108 152.322 39.8437 151.029 39.5024C149.907 39.2252 148.853 38.7246 147.929 38.0305L149.588 35.0293C150.27 35.5676 151.049 35.9711 151.882 36.2183C152.781 36.5086 153.72 36.6582 154.665 36.6618C156.11 36.6618 157.177 36.333 157.861 35.6831C158.546 35.0332 158.905 34.0544 158.905 32.7354V32.1199C157.814 33.3178 156.298 33.9155 154.355 33.913C153.094 33.9268 151.848 33.6273 150.731 33.0413C149.654 32.4807 148.751 31.6341 148.124 30.5945C147.469 29.4965 147.135 28.2368 147.16 26.9586C147.134 25.6791 147.468 24.4181 148.124 23.319C148.751 22.2846 149.65 21.4422 150.723 20.8836C151.841 20.2976 153.086 19.9981 154.348 20.0119C156.435 20.0119 158.023 20.6988 159.111 22.0726V20.2146H163.068ZM157.892 29.5125C158.242 29.1884 158.518 28.7924 158.701 28.3515C158.884 27.9107 158.969 27.4355 158.951 26.9586C158.969 26.4812 158.884 26.0054 158.701 25.5639C158.518 25.1225 158.242 24.7257 157.892 24.4009C157.148 23.7361 156.174 23.3866 155.177 23.426C154.176 23.3886 153.199 23.7376 152.448 24.4009C152.095 24.7245 151.817 25.1208 151.632 25.5623C151.447 26.0039 151.36 26.4803 151.377 26.9586C151.36 27.4364 151.447 27.9122 151.632 28.3532C151.817 28.7941 152.095 29.1896 152.448 29.5125C153.199 30.1758 154.176 30.5248 155.177 30.4874C156.174 30.5268 157.148 30.1773 157.892 29.5125Z" fill="#FF42A5"/>
<path d="M180.192 20.2146V32.2002C180.192 34.8382 179.506 36.7995 178.132 38.0841C176.758 39.3686 174.751 40.0058 172.11 39.9956C170.774 40.0033 169.444 39.8323 168.153 39.4872C167.03 39.2099 165.974 38.7093 165.049 38.0152L166.708 35.0293C167.39 35.5679 168.169 35.9714 169.002 36.2184C169.9 36.5088 170.838 36.6584 171.781 36.6618C173.227 36.6618 174.293 36.333 174.981 35.6831C175.67 35.0332 176.01 34.0468 176.01 32.7278V32.1199C174.922 33.3178 173.405 33.9155 171.46 33.913C170.199 33.9268 168.953 33.6273 167.836 33.0413C166.759 32.4807 165.856 31.6341 165.229 30.5945C164.571 29.4973 164.234 28.2376 164.257 26.9586C164.232 25.6791 164.565 24.4181 165.221 23.319C165.849 22.2793 166.751 21.4327 167.828 20.8721C168.946 20.2861 170.191 19.9866 171.453 20.0005C173.54 20.0005 175.128 20.6874 176.216 22.0611V20.2146H180.192ZM175.016 29.5125C175.365 29.1878 175.64 28.7915 175.822 28.3508C176.004 27.91 176.089 27.4352 176.071 26.9586C176.089 26.4816 176.004 26.0062 175.822 25.5649C175.64 25.1235 175.365 24.7266 175.016 24.4009C174.249 23.7709 173.287 23.4266 172.294 23.4266C171.301 23.4266 170.339 23.7709 169.572 24.4009C169.218 24.7239 168.939 25.12 168.754 25.5617C168.569 26.0034 168.483 26.4801 168.501 26.9586C168.483 27.4366 168.57 27.9127 168.754 28.3538C168.939 28.7949 169.218 29.1903 169.572 29.5125C170.339 30.1425 171.301 30.4869 172.294 30.4869C173.287 30.4869 174.249 30.1425 175.016 29.5125Z" fill="#FF42A5"/>
</g>
<defs>
<clipPath id="clip0_1793_17034">
<rect width="181" height="48" fill="white"/>
</clipPath>
</defs>
</svg>
