<svg width="16" height="16" viewBox="0 0 16 16" fill="none" xmlns="http://www.w3.org/2000/svg">
<g clip-path="url(#clip0_13790_23236)">
<path d="M9.00667 9.58687L12.5 5.17354V4.04688H3.5V5.17354L7.00667 9.58687L7.00666 12.6669C7.00666 12.9335 7.26 13.1269 7.52 13.0669L8.50666 12.8202C8.79333 12.7469 9.00666 12.4802 9.00666 12.1735L9.00667 9.58687Z" fill="white"/>
<circle cx="8.00033" cy="8.00033" r="7.33333" fill="#398B4D"/>
<path fill-rule="evenodd" clip-rule="evenodd" d="M6.67453 10.5476C6.67513 10.5481 6.67574 10.5487 6.67635 10.5492C6.87229 10.7208 7.17073 10.7016 7.34293 10.5064L7.34293 10.5064L11.2161 6.11442C11.3883 5.91915 11.3691 5.62175 11.1731 5.45014C10.9772 5.27854 10.6787 5.29772 10.5065 5.49299L6.94516 9.53137L5.45112 8.22292C5.25517 8.05131 4.95674 8.07049 4.78454 8.26576C4.61234 8.46102 4.63158 8.75842 4.82753 8.93003L6.67453 10.5476Z" fill="#EEEDF0"/>
</g>
<defs>
<clipPath id="clip0_13790_23236">
<rect width="16" height="16" fill="white"/>
</clipPath>
</defs>
</svg>
